<svg height="2030" width="720" xmlns="http://www.w3.org/2000/svg">
<rect height="2030" fill="#555" width="720"></rect>
<text fill="#7f7" font-family="Courier New" font-size="12" xml:space="preserve">
<tspan x="10" y="26">18 megabytes installed</tspan>
<tspan x="10" y="42"></tspan>
<tspan x="10" y="58">node_modules</tspan>
<tspan x="10" y="74">└─┬ css-loader@0.28.0 </tspan>
<tspan x="10" y="90">  ├─┬ babel-code-frame@6.22.0 </tspan>
<tspan x="10" y="106">  │ ├─┬ chalk@1.1.3 </tspan>
<tspan x="10" y="122">  │ │ ├── ansi-styles@2.2.1 </tspan>
<tspan x="10" y="138">  │ │ ├── escape-string-regexp@1.0.5 </tspan>
<tspan x="10" y="154">  │ │ ├─┬ has-ansi@2.0.0 </tspan>
<tspan x="10" y="170">  │ │ │ └── ansi-regex@2.1.1 </tspan>
<tspan x="10" y="186">  │ │ ├── strip-ansi@3.0.1 </tspan>
<tspan x="10" y="202">  │ │ └── supports-color@2.0.0 </tspan>
<tspan x="10" y="218">  │ ├── esutils@2.0.2 </tspan>
<tspan x="10" y="234">  │ └── js-tokens@3.0.1 </tspan>
<tspan x="10" y="250">  ├─┬ css-selector-tokenizer@0.7.0 </tspan>
<tspan x="10" y="266">  │ ├── cssesc@0.1.0 </tspan>
<tspan x="10" y="282">  │ ├── fastparse@1.1.1 </tspan>
<tspan x="10" y="298">  │ └─┬ regexpu-core@1.0.0 </tspan>
<tspan x="10" y="314">  │   ├── regenerate@1.3.2 </tspan>
<tspan x="10" y="330">  │   ├── regjsgen@0.2.0 </tspan>
<tspan x="10" y="346">  │   └─┬ regjsparser@0.1.5 </tspan>
<tspan x="10" y="362">  │     └── jsesc@0.5.0 </tspan>
<tspan x="10" y="378">  ├─┬ cssnano@3.10.0 </tspan>
<tspan x="10" y="394">  │ ├─┬ autoprefixer@6.7.7 </tspan>
<tspan x="10" y="410">  │ │ ├─┬ browserslist@1.7.7 </tspan>
<tspan x="10" y="426">  │ │ │ └── electron-to-chromium@1.3.3 </tspan>
<tspan x="10" y="442">  │ │ ├── caniuse-db@1.0.30000655 </tspan>
<tspan x="10" y="458">  │ │ ├── normalize-range@0.1.2 </tspan>
<tspan x="10" y="474">  │ │ └── num2fraction@1.2.2 </tspan>
<tspan x="10" y="490">  │ ├── decamelize@1.2.0 </tspan>
<tspan x="10" y="506">  │ ├── defined@1.0.0 </tspan>
<tspan x="10" y="522">  │ ├─┬ has@1.0.1 </tspan>
<tspan x="10" y="538">  │ │ └── function-bind@1.1.0 </tspan>
<tspan x="10" y="554">  │ ├─┬ postcss-calc@5.3.1 </tspan>
<tspan x="10" y="570">  │ │ ├── postcss-message-helpers@2.0.0 </tspan>
<tspan x="10" y="586">  │ │ └─┬ reduce-css-calc@1.3.0 </tspan>
<tspan x="10" y="602">  │ │   ├── balanced-match@0.4.2 </tspan>
<tspan x="10" y="618">  │ │   ├── math-expression-evaluator@1.2.16 </tspan>
<tspan x="10" y="634">  │ │   └── reduce-function-call@1.0.2 </tspan>
<tspan x="10" y="650">  │ ├─┬ postcss-colormin@2.2.2 </tspan>
<tspan x="10" y="666">  │ │ └─┬ colormin@1.1.2 </tspan>
<tspan x="10" y="682">  │ │   ├─┬ color@0.11.4 </tspan>
<tspan x="10" y="698">  │ │   │ ├── clone@1.0.2 </tspan>
<tspan x="10" y="714">  │ │   │ ├─┬ color-convert@1.9.0 </tspan>
<tspan x="10" y="730">  │ │   │ │ └── color-name@1.1.2 </tspan>
<tspan x="10" y="746">  │ │   │ └── color-string@0.3.0 </tspan>
<tspan x="10" y="762">  │ │   └── css-color-names@0.0.4 </tspan>
<tspan x="10" y="778">  │ ├── postcss-convert-values@2.6.1 </tspan>
<tspan x="10" y="794">  │ ├── postcss-discard-comments@2.0.4 </tspan>
<tspan x="10" y="810">  │ ├── postcss-discard-duplicates@2.1.0 </tspan>
<tspan x="10" y="826">  │ ├── postcss-discard-empty@2.1.0 </tspan>
<tspan x="10" y="842">  │ ├── postcss-discard-overridden@0.1.1 </tspan>
<tspan x="10" y="858">  │ ├─┬ postcss-discard-unused@2.2.3 </tspan>
<tspan x="10" y="874">  │ │ └── uniqs@2.0.0 </tspan>
<tspan x="10" y="890">  │ ├─┬ postcss-filter-plugins@2.0.2 </tspan>
<tspan x="10" y="906">  │ │ └─┬ uniqid@4.1.1 </tspan>
<tspan x="10" y="922">  │ │   └── macaddress@0.2.8 </tspan>
<tspan x="10" y="938">  │ ├── postcss-merge-idents@2.1.7 </tspan>
<tspan x="10" y="954">  │ ├── postcss-merge-longhand@2.0.2 </tspan>
<tspan x="10" y="970">  │ ├─┬ postcss-merge-rules@2.1.2 </tspan>
<tspan x="10" y="986">  │ │ ├─┬ caniuse-api@1.6.1 </tspan>
<tspan x="10" y="1002">  │ │ │ ├── lodash.memoize@4.1.2 </tspan>
<tspan x="10" y="1018">  │ │ │ └── lodash.uniq@4.5.0 </tspan>
<tspan x="10" y="1034">  │ │ ├─┬ postcss-selector-parser@2.2.3 </tspan>
<tspan x="10" y="1050">  │ │ │ ├── flatten@1.0.2 </tspan>
<tspan x="10" y="1066">  │ │ │ ├── indexes-of@1.0.1 </tspan>
<tspan x="10" y="1082">  │ │ │ └── uniq@1.0.1 </tspan>
<tspan x="10" y="1098">  │ │ └── vendors@1.0.1 </tspan>
<tspan x="10" y="1114">  │ ├── postcss-minify-font-values@1.0.5 </tspan>
<tspan x="10" y="1130">  │ ├── postcss-minify-gradients@1.0.5 </tspan>
<tspan x="10" y="1146">  │ ├─┬ postcss-minify-params@1.2.2 </tspan>
<tspan x="10" y="1162">  │ │ └── alphanum-sort@1.0.2 </tspan>
<tspan x="10" y="1178">  │ ├── postcss-minify-selectors@2.1.1 </tspan>
<tspan x="10" y="1194">  │ ├── postcss-normalize-charset@1.1.1 </tspan>
<tspan x="10" y="1210">  │ ├─┬ postcss-normalize-url@3.0.8 </tspan>
<tspan x="10" y="1226">  │ │ ├── is-absolute-url@2.1.0 </tspan>
<tspan x="10" y="1242">  │ │ └─┬ normalize-url@1.9.1 </tspan>
<tspan x="10" y="1258">  │ │   ├── prepend-http@1.0.4 </tspan>
<tspan x="10" y="1274">  │ │   ├─┬ query-string@4.3.3 </tspan>
<tspan x="10" y="1290">  │ │   │ └── strict-uri-encode@1.1.0 </tspan>
<tspan x="10" y="1306">  │ │   └─┬ sort-keys@1.1.2 </tspan>
<tspan x="10" y="1322">  │ │     └── is-plain-obj@1.1.0 </tspan>
<tspan x="10" y="1338">  │ ├── postcss-ordered-values@2.2.3 </tspan>
<tspan x="10" y="1354">  │ ├── postcss-reduce-idents@2.4.0 </tspan>
<tspan x="10" y="1370">  │ ├── postcss-reduce-initial@1.0.1 </tspan>
<tspan x="10" y="1386">  │ ├── postcss-reduce-transforms@1.0.4 </tspan>
<tspan x="10" y="1402">  │ ├─┬ postcss-svgo@2.1.6 </tspan>
<tspan x="10" y="1418">  │ │ ├─┬ is-svg@2.1.0 </tspan>
<tspan x="10" y="1434">  │ │ │ └── html-comment-regex@1.1.1 </tspan>
<tspan x="10" y="1450">  │ │ └─┬ svgo@0.7.2 </tspan>
<tspan x="10" y="1466">  │ │   ├─┬ coa@1.0.1 </tspan>
<tspan x="10" y="1482">  │ │   │ └── q@1.5.0 </tspan>
<tspan x="10" y="1498">  │ │   ├── colors@1.1.2 </tspan>
<tspan x="10" y="1514">  │ │   ├─┬ csso@2.3.2 </tspan>
<tspan x="10" y="1530">  │ │   │ └── clap@1.1.3 </tspan>
<tspan x="10" y="1546">  │ │   ├─┬ js-yaml@3.7.0 </tspan>
<tspan x="10" y="1562">  │ │   │ ├─┬ argparse@1.0.9 </tspan>
<tspan x="10" y="1578">  │ │   │ │ └── sprintf-js@1.0.3 </tspan>
<tspan x="10" y="1594">  │ │   │ └── esprima@2.7.3 </tspan>
<tspan x="10" y="1610">  │ │   ├─┬ mkdirp@0.5.1 </tspan>
<tspan x="10" y="1626">  │ │   │ └── minimist@0.0.8 </tspan>
<tspan x="10" y="1642">  │ │   ├── sax@1.2.2 </tspan>
<tspan x="10" y="1658">  │ │   └── whet.extend@0.9.9 </tspan>
<tspan x="10" y="1674">  │ ├── postcss-unique-selectors@2.0.2 </tspan>
<tspan x="10" y="1690">  │ ├── postcss-value-parser@3.3.0 </tspan>
<tspan x="10" y="1706">  │ └── postcss-zindex@2.2.0 </tspan>
<tspan x="10" y="1722">  ├─┬ loader-utils@1.1.0 </tspan>
<tspan x="10" y="1738">  │ ├── big.js@3.1.3 </tspan>
<tspan x="10" y="1754">  │ ├── emojis-list@2.1.0 </tspan>
<tspan x="10" y="1770">  │ └── json5@0.5.1 </tspan>
<tspan x="10" y="1786">  ├── lodash.camelcase@4.3.0 </tspan>
<tspan x="10" y="1802">  ├── object-assign@4.1.1 </tspan>
<tspan x="10" y="1818">  ├─┬ postcss@5.2.17 </tspan>
<tspan x="10" y="1834">  │ ├── js-base64@2.1.9 </tspan>
<tspan x="10" y="1850">  │ ├── source-map@0.5.6 </tspan>
<tspan x="10" y="1866">  │ └─┬ supports-color@3.2.3 </tspan>
<tspan x="10" y="1882">  │   └── has-flag@1.0.0 </tspan>
<tspan x="10" y="1898">  ├── postcss-modules-extract-imports@1.0.1 </tspan>
<tspan x="10" y="1914">  ├─┬ postcss-modules-local-by-default@1.1.1 </tspan>
<tspan x="10" y="1930">  │ └── css-selector-tokenizer@0.6.0 </tspan>
<tspan x="10" y="1946">  ├─┬ postcss-modules-scope@1.0.2 </tspan>
<tspan x="10" y="1962">  │ └── css-selector-tokenizer@0.6.0 </tspan>
<tspan x="10" y="1978">  ├─┬ postcss-modules-values@1.2.2 </tspan>
<tspan x="10" y="1994">  │ └── icss-replace-symbols@1.0.2 </tspan>
<tspan x="10" y="2010">  └── source-list-map@0.1.8</tspan>
</text>
</svg>
